HIERARCHY
ROOT Hips
{
	OFFSET 0.000000 0.000000 0.000000 
	CHANNELS 6 Xposition Yposition Zposition Zrotation Yrotation Xrotation
	JOINT LeftUpLeg
	{
		OFFSET 1.363060 -1.794630 0.839290 
		CHANNELS 3 Zrotation Yrotation Xrotation
		JOINT LeftLeg
		{
			OFFSET 2.448110 -6.726130 0.000000 
			CHANNELS 3 Zrotation Yrotation Xrotation
			JOINT LeftFoot
			{
				OFFSET 2.562200 -7.039590 0.000000 
				CHANNELS 3 Zrotation Yrotation Xrotation
				JOINT LeftToeBase
				{
					OFFSET 0.157640 -0.433110 2.322550 
					CHANNELS 3 Zrotation Yrotation Xrotation
					End Site
					{
						OFFSET 0.000000 0.000000 0.000000 
					}
				}
			}
		}
	}
	JOINT RightUpLeg
	{
		OFFSET -1.305520 -1.794630 0.839290 
		CHANNELS 3 Zrotation Yrotation Xrotation
		JOINT RightLeg
		{
			OFFSET -2.542530 -6.985550 0.000000 
			CHANNELS 3 Zrotation Yrotation Xrotation
			JOINT RightFoot
			{
				OFFSET -2.568260 -7.056230 0.000000 
				CHANNELS 3 Zrotation Yrotation Xrotation
				JOINT RightToeBase
				{
					OFFSET -0.164730 -0.452590 2.363150 
					CHANNELS 3 Zrotation Yrotation Xrotation
					End Site
					{
						OFFSET 0.000000 0.000000 0.000000 
					}
				}
			}
		}
	}
	JOINT Spine
	{
		OFFSET 0.028270 2.035590 -0.193380 
		CHANNELS 3 Zrotation Yrotation Xrotation
		JOINT Spine1
		{
			OFFSET 0.056720 2.048850 -0.042750 
			CHANNELS 3 Zrotation Yrotation Xrotation
			JOINT Neck1
			{
				OFFSET -0.054170 1.746240 0.172020 
				CHANNELS 3 Zrotation Yrotation Xrotation
				JOINT Head
				{
					OFFSET 0.104070 1.761360 -0.123970 
					CHANNELS 3 Zrotation Yrotation Xrotation
					End Site
					{
						OFFSET 0.000000 0.000000 0.000000 
					}
				}
			}
			JOINT LeftArm
			{
				OFFSET 3.362410 1.200890 -0.311210 
				CHANNELS 3 Zrotation Yrotation Xrotation
				JOINT LeftForeArm
				{
					OFFSET 4.983000 -0.000000 -0.000000 
					CHANNELS 3 Zrotation Yrotation Xrotation
					JOINT LeftHand
					{
						OFFSET 3.483560 -0.000000 -0.000000 
						CHANNELS 3 Zrotation Yrotation Xrotation
						JOINT LeftHandIndex1
						{
							OFFSET 0.715260 -0.000000 -0.000000 
							CHANNELS 3 Zrotation Yrotation Xrotation
							End Site
							{
								OFFSET 0.000000 0.000000 0.000000 
							}
						}
					}
				}
			}
			JOINT RightArm
			{
				OFFSET -3.136600 1.374050 -0.404650 
				CHANNELS 3 Zrotation Yrotation Xrotation
				JOINT RightForeArm
				{
					OFFSET -5.241900 -0.000000 -0.000000 
					CHANNELS 3 Zrotation Yrotation Xrotation
					JOINT RightHand
					{
						OFFSET -3.444170 -0.000000 -0.000000 
						CHANNELS 3 Zrotation Yrotation Xrotation
						JOINT RightHandIndex1
						{
							OFFSET -0.622530 -0.000000 -0.000000 
							CHANNELS 3 Zrotation Yrotation Xrotation
							End Site
							{
								OFFSET 0.000000 0.000000 0.000000 
							}
						}
					}
				}
			}
		}
	}
}
MOTION
Frames: 6
Frame Time: 0.041667
-2.825738 17.942079 5.662827 -39.605677 -77.677769 49.713897 -4.306946 -9.596226 -28.597185 1.514581 9.437830 25.580175 -0.514238 5.076837 3.325799 0.675900 -5.257100 -14.643400 34.834077 2.159433 -1.762190 -0.447759 -6.061574 15.706622 1.516449 -11.086349 -7.197879 -0.000500 -0.142900 0.392500 0.871960 4.345431 -4.852773 3.972939 1.737847 -0.212542 9.781382 -11.583209 4.197222 4.105000 -5.438900 6.709600 -97.734741 14.814170 6.470188 17.410710 -35.802558 -4.724955 -0.342188 3.035604 26.974846 -7.125000 0.000000 0.000000 91.113310 -0.342150 0.050718 -5.998839 14.645383 -0.531513 -0.719068 0.460027 34.977959 7.125000 0.000000 0.000000 
-2.986662 17.927640 5.670495 -41.071541 -78.018990 51.292195 -4.227054 -9.789170 -28.731397 1.337056 9.076889 24.477784 -0.539721 5.247085 3.438500 0.659300 -5.193100 -14.460200 34.788111 2.044131 -1.544597 -0.486401 -6.193049 16.091730 1.434072 -10.644423 -7.184323 -0.000200 0.089700 -0.246300 0.884646 4.282150 -4.856643 3.987845 1.701400 -0.196922 9.637617 -11.315426 4.271350 4.054200 -5.309100 6.710700 -97.677586 14.835756 6.155705 17.351117 -35.724468 -4.710865 -0.323199 3.023968 27.130988 -7.125000 0.000000 0.000000 91.447210 -1.119375 -2.411404 -5.666205 14.011079 -0.451686 -0.707591 0.483198 37.198308 7.125000 0.000000 0.000000 
-3.148184 17.912603 5.678362 -42.623734 -78.359123 52.947041 -4.140843 -10.014393 -28.827904 1.180141 8.740481 23.459724 -0.570201 5.443720 3.557642 0.641200 -5.122900 -14.259600 34.715613 1.923744 -1.363066 -0.533073 -6.348781 16.546781 1.350731 -10.192057 -7.146342 -0.002400 0.319200 -0.877000 0.897594 4.211168 -4.858336 4.004639 1.661127 -0.181319 9.494234 -11.038640 4.346358 4.002700 -5.174900 6.710300 -97.597532 14.835498 5.798590 17.255991 -35.608197 -4.686958 -0.297183 3.013310 27.328166 -7.125000 0.000000 0.000000 91.726079 -1.870746 -4.870288 -5.371075 13.438936 -0.385370 -0.694313 0.505273 39.421543 7.125000 0.000000 0.000000 
-3.310602 17.896969 5.686528 -44.279383 -78.698608 54.695257 -4.049298 -10.266698 -28.888702 1.043183 8.431353 22.531268 -0.605986 5.667110 3.678213 0.621500 -5.045100 -14.037200 34.616513 1.801108 -1.218558 -0.588496 -6.529226 17.072961 1.267336 -9.733090 -7.075163 -0.007100 0.546000 -1.500300 0.910614 4.133333 -4.857477 4.023245 1.617951 -0.164082 9.352808 -10.753251 4.422387 3.951400 -5.036400 6.708700 -97.495053 14.812195 5.399799 17.125862 -35.454398 -4.653465 -0.264333 3.003860 27.567044 -7.125000 0.000000 0.000000 91.951122 -2.596174 -7.291700 -5.112538 12.930097 -0.331411 -0.679623 0.525809 41.613121 7.125000 0.000000 0.000000 
-3.473717 17.880936 5.695092 -46.041807 -79.039675 56.539463 -3.958957 -10.541725 -28.915558 0.925148 8.151811 21.696434 -0.646555 5.914657 3.796943 0.600200 -4.959400 -13.792900 34.486200 1.677077 -1.112094 -0.653509 -6.734082 17.670998 1.184854 -9.270561 -6.960542 -0.014300 0.771800 -2.121200 0.923088 4.049753 -4.854239 4.044531 1.572256 -0.145659 9.212529 -10.459849 4.501088 3.899700 -4.894000 6.706600 -97.370155 14.765689 4.959424 16.961261 -35.262860 -4.610480 -0.224837 2.995692 27.849627 -7.125000 0.000000 0.000000 92.123336 -3.296665 -9.635150 -4.889560 12.484703 -0.288225 -0.664191 0.544323 43.728825 7.125000 0.000000 0.000000 
-3.637629 17.864505 5.703855 -47.925819 -79.382745 58.494069 -3.873676 -10.833474 -28.910857 0.825003 7.903672 20.958197 -0.691335 6.180930 3.908703 0.576900 -4.864000 -13.521100 34.323349 1.553999 -1.045049 -0.729036 -6.963963 18.342895 1.103847 -8.807722 -6.795255 -0.023400 0.987400 -2.714200 0.934720 3.960810 -4.848775 4.068213 1.524223 -0.126281 9.073460 -10.158817 4.584424 3.847500 -4.747800 6.705000 -97.222650 14.696982 4.478236 16.764158 -35.035374 -4.559002 -0.178683 2.989117 28.174717 -7.125000 0.000000 0.000000 92.244370 -3.971601 -11.863718 -4.700181 12.101146 -0.254700 -0.648473 0.560450 45.727467 7.125000 0.000000 0.000000 
